<svg width="194" height="50" viewBox="0 0 194 50" fill="none" xmlns="http://www.w3.org/2000/svg">
<path d="M73.9 16.1999C73.9 13.1999 72.5 11.7999 69.5 11.7999H67.8V20.7999H69.2C72.3 20.6999 73.9 19.1999 73.9 16.1999ZM77.2 16.0999C77.2 18.3999 76.5 20.0999 75 21.2999C73.6 22.4999 71.5 23.0999 68.8 23.0999H64.5V9.3999H69.3C71.8 9.3999 73.7 9.9999 75.1 11.1999C76.5 12.2999 77.2 13.9999 77.2 16.0999Z" fill="#17384C"/>
<path d="M81.3008 9.3999H84.6008V23.1999H81.3008V9.3999Z" fill="#17384C"/>
<path d="M98.5992 19.2999C98.5992 20.5999 98.0992 21.5 97.0992 22.2C96.0992 22.9 94.6992 23.2999 92.9992 23.2999C91.3992 23.2999 89.8992 23 88.6992 22.5V19.7999C89.6992 20.1999 90.5992 20.5 91.2992 20.7C91.9992 20.9 92.6992 21 93.2992 21C93.9992 21 94.5992 20.8999 94.8992 20.5999C95.2992 20.3999 95.4992 20 95.4992 19.5C95.4992 19.2 95.3992 18.9999 95.1992 18.7999C94.9992 18.5999 94.7992 18.4 94.4992 18.2C94.1992 18 93.4992 17.6999 92.4992 17.2999C91.5992 16.8999 90.8992 16.5 90.3992 16.2C89.8992 15.8 89.5992 15.4 89.2992 14.9C88.9992 14.4 88.8992 13.9 88.8992 13.2C88.8992 12 89.3992 10.9999 90.2992 10.2999C91.1992 9.59995 92.4992 9.19995 94.0992 9.19995C94.8992 9.19995 95.6992 9.29995 96.3992 9.49995C97.0992 9.69995 97.8992 9.89995 98.6992 10.2L97.5992 12.5C96.7992 12.2 96.0992 12 95.5992 11.9C95.0992 11.8 94.4992 11.7 93.9992 11.7C93.3992 11.7 92.8992 11.7999 92.5992 12.0999C92.2992 12.3999 92.0992 12.6999 92.0992 13.0999C92.0992 13.3999 92.1992 13.5999 92.2992 13.7999C92.3992 13.9999 92.5992 14.2 92.8992 14.4C93.1992 14.6 93.8992 14.9 94.9992 15.4C96.3992 16 97.3992 16.5999 97.8992 17.2999C98.3992 17.6999 98.5992 18.3999 98.5992 19.2999Z" fill="#17384C"/>
<path d="M105.7 15.4999H106.7C107.7 15.4999 108.5 15.2999 109 14.9999C109.5 14.6999 109.7 14.1999 109.7 13.4999C109.7 12.7999 109.4 12.3999 108.9 12.0999C108.4 11.7999 107.6 11.6999 106.6 11.6999H105.6V15.4999H105.7ZM105.7 17.8999V23.1999H102.5V9.3999H107C109.1 9.3999 110.6 9.6999 111.6 10.3999C112.6 11.0999 113.1 12.0999 113.1 13.4999C113.1 14.2999 112.9 14.9999 112.4 15.6999C111.9 16.2999 111.2 16.7999 110.3 17.1999C112.6 20.2999 114.1 22.2999 114.8 23.1999H111.2L107.5 17.8999H105.7V17.8999Z" fill="#17384C"/>
<path d="M129.799 9.39993V18.2999C129.799 19.2999 129.499 20.1999 128.999 20.9999C128.499 21.7999 127.799 22.3999 126.799 22.7999C125.799 23.1999 124.699 23.3999 123.399 23.3999C121.399 23.3999 119.899 22.8999 118.799 21.9999C117.699 21.0999 117.199 19.7999 117.199 18.2999V9.39993H120.399V17.7999C120.399 18.8999 120.599 19.5999 121.099 20.0999C121.599 20.5999 122.399 20.8999 123.499 20.8999C124.599 20.8999 125.299 20.5999 125.799 20.0999C126.299 19.5999 126.499 18.7999 126.499 17.6999V9.29993H129.799V9.39993Z" fill="#17384C"/>
<path d="M137.399 15.8999H138.499C139.499 15.8999 140.199 15.6999 140.699 15.3999C141.199 14.9999 141.399 14.4999 141.399 13.7999C141.399 13.0999 141.199 12.5999 140.799 12.2999C140.399 11.9999 139.699 11.7999 138.899 11.7999H137.399V15.8999V15.8999ZM144.699 13.6999C144.699 15.1999 144.199 16.2999 143.199 17.0999C142.199 17.8999 140.699 18.2999 138.799 18.2999H137.399V23.1999H134.199V9.3999H139.099C140.999 9.3999 142.399 9.7999 143.299 10.4999C144.199 11.1999 144.699 12.1999 144.699 13.6999Z" fill="#17384C"/>
<path d="M154.099 23.1999H150.799V11.7999H146.699V9.3999H158.199V11.7999H154.099V23.1999Z" fill="#17384C"/>
<path d="M161.4 9.3999H164.6V23.1999H161.4V9.3999Z" fill="#17384C"/>
<path d="M178.7 9.3999H182L176.8 23.1999H173.3L168.1 9.3999H171.4L174.3 17.5999C174.5 18.0999 174.6 18.5999 174.8 19.2999C175 19.8999 175.1 20.3999 175.1 20.5999C175.2 19.9999 175.4 18.9999 175.9 17.5999L178.7 9.3999Z" fill="#17384C"/>
<path d="M193.499 23.1999H184.699V9.3999H193.499V11.7999H187.999V14.7999H193.099V17.1999H187.999V20.6999H193.499V23.1999Z" fill="#17384C"/>
<path d="M72.3 30.3V32.3H71.6L71.5 31H68.8V39.2L69.9 39.3V39.9H66.9V39.3L68 39.2V31H65.3L65.2 32.3H64.5V30.3H72.3ZM81.4 35.2H77.4V39.1H82L82.1 37.7H82.8V39.8H75.6V39.2L76.7 39.1V30.9L75.6 30.8V30.2H76.7H82.8V32.3H82.1L82 30.9H77.4V34.5H81.4V35.2V35.2ZM94.2 33.3H93.6L93.5 31.9C93.2 31.6 92.9 31.4 92.5 31.2C92.1 31 91.6 30.9 91.1 30.9C90 30.9 89.2 31.3 88.5 32.1C87.8 32.9 87.5 33.9 87.5 35.1V35.2C87.5 36.4 87.8 37.4 88.5 38.2C89.1 39 90 39.4 91 39.4C91.5 39.4 92 39.3 92.5 39.1C92.9 38.9 93.3 38.7 93.6 38.4L93.7 37H94.3V38.5C94 38.9 93.6 39.3 93 39.5C92.4 39.8 91.8 39.9 91 39.9C89.8 39.9 88.7 39.5 87.9 38.5C87.1 37.6 86.7 36.4 86.7 35V34.9C86.7 33.5 87.1 32.3 87.9 31.4C88.7 30.5 89.7 30 91 30C91.7 30 92.4 30.1 92.9 30.4C93.4 30.7 93.9 31 94.2 31.4V33.3ZM97.9 30.9V30.3H100.9V30.9L99.8 31V34.8H105.3V31L104.2 30.9V30.3H105.3H106.1H107.2V30.9L106.1 31V39.2L107.2 39.3V39.9H104.2V39.3L105.3 39.2V35.5H99.8V39.2L100.9 39.3V39.9H97.9V39.3L99 39.2V31L97.9 30.9ZM119.9 30.3V30.9L118.8 31V39.8H118L112.5 31.7V39.2L113.6 39.3V39.9H110.6V39.3L111.7 39.2V31L110.6 30.9V30.3H111.7H112.5L118 38.4V30.9L116.9 30.8V30.2H118.8H119.9V30.3ZM131.7 35.1C131.7 36.5 131.3 37.7 130.5 38.6C129.7 39.5 128.7 39.9 127.5 39.9C126.3 39.9 125.3 39.5 124.5 38.6C123.7 37.7 123.4 36.5 123.4 35.1V35C123.4 33.6 123.8 32.4 124.5 31.5C125.3 30.6 126.3 30.2 127.5 30.2C128.7 30.2 129.8 30.6 130.5 31.5C131.3 32.4 131.7 33.6 131.7 35V35.1ZM130.9 35C130.9 33.8 130.6 32.8 130 32C129.4 31.2 128.6 30.9 127.5 30.9C126.5 30.9 125.7 31.3 125.1 32C124.5 32.8 124.2 33.8 124.2 35V35.1C124.2 36.3 124.5 37.3 125.1 38.1C125.7 38.9 126.5 39.2 127.5 39.2C128.6 39.2 129.4 38.8 130 38.1C130.6 37.3 130.9 36.3 130.9 35.1V35ZM135.3 39.8V39.2L136.4 39.1V30.9L135.3 30.8V30.2H136.4H137.2H138.3V30.8L137.2 30.9V39.1H141.2L141.3 37.8H142V39.8H135.3V39.8ZM153.7 35.1C153.7 36.5 153.3 37.7 152.5 38.6C151.7 39.5 150.7 39.9 149.5 39.9C148.3 39.9 147.3 39.5 146.5 38.6C145.7 37.7 145.4 36.5 145.4 35.1V35C145.4 33.6 145.8 32.4 146.5 31.5C147.3 30.6 148.3 30.2 149.5 30.2C150.7 30.2 151.8 30.6 152.5 31.5C153.3 32.4 153.7 33.6 153.7 35V35.1ZM152.9 35C152.9 33.8 152.6 32.8 152 32C151.4 31.2 150.6 30.9 149.5 30.9C148.5 30.9 147.7 31.3 147.1 32C146.5 32.8 146.2 33.8 146.2 35V35.1C146.2 36.3 146.5 37.3 147.1 38.1C147.7 38.9 148.5 39.2 149.5 39.2C150.6 39.2 151.4 38.8 152 38.1C152.6 37.3 152.9 36.3 152.9 35.1V35ZM165.1 38.8C164.9 39.1 164.5 39.3 163.9 39.6C163.3 39.9 162.6 40 161.7 40C160.4 40 159.4 39.6 158.6 38.7C157.8 37.8 157.4 36.7 157.4 35.2V35C157.4 33.6 157.8 32.4 158.6 31.6C159.4 30.7 160.4 30.3 161.7 30.3C162.4 30.3 163.1 30.4 163.6 30.7C164.2 30.9 164.6 31.3 165 31.7V33.3H164.4L164.3 31.9C164 31.6 163.7 31.4 163.3 31.2C162.9 31 162.4 31 161.8 31C160.7 31 159.8 31.4 159.2 32.1C158.6 32.9 158.2 33.8 158.2 35V35.2C158.2 36.4 158.5 37.4 159.1 38.2C159.7 39 160.6 39.4 161.6 39.4C162.2 39.4 162.8 39.3 163.2 39.2C163.6 39 164 38.9 164.1 38.7V36.4H162.2V35.8H164.9V38.8H165.1ZM169.3 30.9V30.3H172.3V30.9L171.2 31V39.2L172.3 39.3V39.9H169.3V39.3L170.4 39.2V31L169.3 30.9ZM181.6 35.2H177.6V39.1H182.2L182.3 37.7H183V39.8H175.7V39.2L176.8 39.1V30.9L175.7 30.8V30.2H176.8H182.9V32.3H182.2L182.1 30.9H177.5V34.5H181.5V35.2H181.6ZM193.5 33.1H192.8L192.7 31.8C192.5 31.5 192.1 31.3 191.7 31.1C191.3 30.9 190.8 30.9 190.2 30.9C189.4 30.9 188.8 31.1 188.3 31.4C187.9 31.7 187.6 32.2 187.6 32.7C187.6 33.2 187.8 33.6 188.2 33.9C188.6 34.2 189.3 34.5 190.3 34.7C191.4 35 192.1 35.3 192.7 35.8C193.2 36.2 193.5 36.8 193.5 37.6C193.5 38.4 193.2 39 192.6 39.4C192 39.8 191.2 40.1 190.2 40.1C189.5 40.1 188.9 40 188.3 39.7C187.7 39.5 187.2 39.1 186.8 38.7V37H187.5L187.6 38.4C187.9 38.7 188.3 39 188.7 39.1C189.2 39.3 189.7 39.4 190.2 39.4C191 39.4 191.6 39.2 192.1 38.9C192.6 38.6 192.8 38.1 192.8 37.6C192.8 37.1 192.6 36.7 192.2 36.3C191.8 36 191.1 35.7 190.1 35.4C189 35.1 188.2 34.8 187.7 34.4C187.2 34 186.9 33.4 186.9 32.7C186.9 32 187.2 31.4 187.8 30.9C188.4 30.4 189.2 30.2 190.2 30.2C190.9 30.2 191.5 30.3 192.1 30.6C192.7 30.8 193.1 31.2 193.4 31.6V33.1H193.5Z" fill="#17384C"/>
<path d="M72.3 30.3V32.3H71.6L71.5 31H68.8V39.2L69.9 39.3V39.9H66.9V39.3L68 39.2V31H65.3L65.2 32.3H64.5V30.3H72.3ZM81.4 35.2H77.4V39.1H82L82.1 37.7H82.8V39.8H75.6V39.2L76.7 39.1V30.9L75.6 30.8V30.2H76.7H82.8V32.3H82.1L82 30.9H77.4V34.5H81.4V35.2V35.2ZM94.2 33.3H93.6L93.5 31.9C93.2 31.6 92.9 31.4 92.5 31.2C92.1 31 91.6 30.9 91.1 30.9C90 30.9 89.2 31.3 88.5 32.1C87.8 32.9 87.5 33.9 87.5 35.1V35.2C87.5 36.4 87.8 37.4 88.5 38.2C89.1 39 90 39.4 91 39.4C91.5 39.4 92 39.3 92.5 39.1C92.9 38.9 93.3 38.7 93.6 38.4L93.7 37H94.3V38.5C94 38.9 93.6 39.3 93 39.5C92.4 39.8 91.8 39.9 91 39.9C89.8 39.9 88.7 39.5 87.9 38.5C87.1 37.6 86.7 36.4 86.7 35V34.9C86.7 33.5 87.1 32.3 87.9 31.4C88.7 30.5 89.7 30 91 30C91.7 30 92.4 30.1 92.9 30.4C93.4 30.7 93.9 31 94.2 31.4V33.3ZM97.9 30.9V30.3H100.9V30.9L99.8 31V34.8H105.3V31L104.2 30.9V30.3H105.3H106.1H107.2V30.9L106.1 31V39.2L107.2 39.3V39.9H104.2V39.3L105.3 39.2V35.5H99.8V39.2L100.9 39.3V39.9H97.9V39.3L99 39.2V31L97.9 30.9ZM119.9 30.3V30.9L118.8 31V39.8H118L112.5 31.7V39.2L113.6 39.3V39.9H110.6V39.3L111.7 39.2V31L110.6 30.9V30.3H111.7H112.5L118 38.4V30.9L116.9 30.8V30.2H118.8H119.9V30.3ZM131.7 35.1C131.7 36.5 131.3 37.7 130.5 38.6C129.7 39.5 128.7 39.9 127.5 39.9C126.3 39.9 125.3 39.5 124.5 38.6C123.7 37.7 123.4 36.5 123.4 35.1V35C123.4 33.6 123.8 32.4 124.5 31.5C125.3 30.6 126.3 30.2 127.5 30.2C128.7 30.2 129.8 30.6 130.5 31.5C131.3 32.4 131.7 33.6 131.7 35V35.1ZM130.9 35C130.9 33.8 130.6 32.8 130 32C129.4 31.2 128.6 30.9 127.5 30.9C126.5 30.9 125.7 31.3 125.1 32C124.5 32.8 124.2 33.8 124.2 35V35.1C124.2 36.3 124.5 37.3 125.1 38.1C125.7 38.9 126.5 39.2 127.5 39.2C128.6 39.2 129.4 38.8 130 38.1C130.6 37.3 130.9 36.3 130.9 35.1V35ZM135.3 39.8V39.2L136.4 39.1V30.9L135.3 30.8V30.2H136.4H137.2H138.3V30.8L137.2 30.9V39.1H141.2L141.3 37.8H142V39.8H135.3V39.8ZM153.7 35.1C153.7 36.5 153.3 37.7 152.5 38.6C151.7 39.5 150.7 39.9 149.5 39.9C148.3 39.9 147.3 39.5 146.5 38.6C145.7 37.7 145.4 36.5 145.4 35.1V35C145.4 33.6 145.8 32.4 146.5 31.5C147.3 30.6 148.3 30.2 149.5 30.2C150.7 30.2 151.8 30.6 152.5 31.5C153.3 32.4 153.7 33.6 153.7 35V35.1ZM152.9 35C152.9 33.8 152.6 32.8 152 32C151.4 31.2 150.6 30.9 149.5 30.9C148.5 30.9 147.7 31.3 147.1 32C146.5 32.8 146.2 33.8 146.2 35V35.1C146.2 36.3 146.5 37.3 147.1 38.1C147.7 38.9 148.5 39.2 149.5 39.2C150.6 39.2 151.4 38.8 152 38.1C152.6 37.3 152.9 36.3 152.9 35.1V35ZM165.1 38.8C164.9 39.1 164.5 39.3 163.9 39.6C163.3 39.9 162.6 40 161.7 40C160.4 40 159.4 39.6 158.6 38.7C157.8 37.8 157.4 36.7 157.4 35.2V35C157.4 33.6 157.8 32.4 158.6 31.6C159.4 30.7 160.4 30.3 161.7 30.3C162.4 30.3 163.1 30.4 163.6 30.7C164.2 30.9 164.6 31.3 165 31.7V33.3H164.4L164.3 31.9C164 31.6 163.7 31.4 163.3 31.2C162.9 31 162.4 31 161.8 31C160.7 31 159.8 31.4 159.2 32.1C158.6 32.9 158.2 33.8 158.2 35V35.2C158.2 36.4 158.5 37.4 159.1 38.2C159.7 39 160.6 39.4 161.6 39.4C162.2 39.4 162.8 39.3 163.2 39.2C163.6 39 164 38.9 164.1 38.7V36.4H162.2V35.8H164.9V38.8H165.1ZM169.3 30.9V30.3H172.3V30.9L171.2 31V39.2L172.3 39.3V39.9H169.3V39.3L170.4 39.2V31L169.3 30.9ZM181.6 35.2H177.6V39.1H182.2L182.3 37.7H183V39.8H175.7V39.2L176.8 39.1V30.9L175.7 30.8V30.2H176.8H182.9V32.3H182.2L182.1 30.9H177.5V34.5H181.5V35.2H181.6ZM193.5 33.1H192.8L192.7 31.8C192.5 31.5 192.1 31.3 191.7 31.1C191.3 30.9 190.8 30.9 190.2 30.9C189.4 30.9 188.8 31.1 188.3 31.4C187.9 31.7 187.6 32.2 187.6 32.7C187.6 33.2 187.8 33.6 188.2 33.9C188.6 34.2 189.3 34.5 190.3 34.7C191.4 35 192.1 35.3 192.7 35.8C193.2 36.2 193.5 36.8 193.5 37.6C193.5 38.4 193.2 39 192.6 39.4C192 39.8 191.2 40.1 190.2 40.1C189.5 40.1 188.9 40 188.3 39.7C187.7 39.5 187.2 39.1 186.8 38.7V37H187.5L187.6 38.4C187.9 38.7 188.3 39 188.7 39.1C189.2 39.3 189.7 39.4 190.2 39.4C191 39.4 191.6 39.2 192.1 38.9C192.6 38.6 192.8 38.1 192.8 37.6C192.8 37.1 192.6 36.7 192.2 36.3C191.8 36 191.1 35.7 190.1 35.4C189 35.1 188.2 34.8 187.7 34.4C187.2 34 186.9 33.4 186.9 32.7C186.9 32 187.2 31.4 187.8 30.9C188.4 30.4 189.2 30.2 190.2 30.2C190.9 30.2 191.5 30.3 192.1 30.6C192.7 30.8 193.1 31.2 193.4 31.6V33.1H193.5Z" fill="#17384C"/>
<path d="M2.8 49.2C1.3 49.2 0 48 0 46.5V2.7C0 1.2 1.2 0 2.8 0H46.6C48.1 0 49.3 1.2 49.3 2.7V46.5C49.3 48 48.1 49.2 46.6 49.2H2.8Z" fill="white"/>
<path fill-rule="evenodd" clip-rule="evenodd" d="M2.8 49.2C1.3 49.2 0 48 0 46.5V2.7C0 1.2 1.2 0 2.8 0H46.6C48.1 0 49.3 1.2 49.3 2.7V46.5C49.3 48 48.1 49.2 46.6 49.2H2.8ZM1.6 47.7C1.9 48 2.3 48.2 2.8 48.2H46.6C47.1 48.2 47.5 48 47.8 47.7C48.1 47.4 48.3 47 48.3 46.5V2.7C48.3 2.2 48.1 1.8 47.8 1.5C47.5 1.2 47.1 1 46.6 1H2.8C2.3 1 1.9 1.2 1.6 1.5C1.3 1.8 1.1 2.2 1.1 2.7V46.5C1.1 46.9 1.3 47.4 1.6 47.7Z" fill="#17384C"/>
<path d="M8.9 6.60002C8.9 7.80002 7.9 8.80002 6.7 8.80002C5.5 8.80002 4.5 7.80002 4.5 6.60002C4.5 5.40002 5.5 4.40002 6.7 4.40002C7.9 4.40002 8.9 5.40002 8.9 6.60002Z" fill="#FF5331"/>
</svg>
