<?xml version="1.0" encoding="utf-8"?>
<!-- Generator: Adobe Illustrator 24.3.0, SVG Export Plug-In . SVG Version: 6.00 Build 0)  -->
<svg version="1.1" id="Layer_1" xmlns="http://www.w3.org/2000/svg" xmlns:xlink="http://www.w3.org/1999/xlink" x="0px" y="0px"
	 viewBox="0 0 254 110" style="enable-background:new 0 0 254 110;" xml:space="preserve">
<style type="text/css">
	.st0{fill:#FFFFFF;}
	.st1{fill:#17384C;}
	.st2{fill-rule:evenodd;clip-rule:evenodd;fill:#17384C;}
	.st3{fill:#FF5331;}
</style>
<g id="Layer_x0020_1">
	<g id="_2815007621616">
		<polygon class="st0" points="-0.1,0 254.3,0 254.3,110.2 -0.1,110.2 		"/>
		<g>
			<g>
				<path class="st1" d="M104.2,46.7c0-3-1.4-4.4-4.4-4.4h-1.7v9h1.4C102.6,51.2,104.2,49.7,104.2,46.7z M107.5,46.6
					c0,2.3-0.7,4-2.2,5.2c-1.4,1.2-3.5,1.8-6.2,1.8h-4.3V39.9h4.8c2.5,0,4.4,0.6,5.8,1.8C106.8,42.8,107.5,44.5,107.5,46.6z"/>
				<polygon class="st1" points="111.6,39.9 114.9,39.9 114.9,53.7 111.6,53.7 				"/>
				<path class="st1" d="M128.9,49.8c0,1.3-0.5,2.2-1.5,2.9c-1,0.7-2.4,1.1-4.1,1.1c-1.6,0-3.1-0.3-4.3-0.8v-2.7
					c1,0.4,1.9,0.7,2.6,0.9c0.7,0.2,1.4,0.3,2,0.3c0.7,0,1.3-0.1,1.6-0.4c0.4-0.2,0.6-0.6,0.6-1.1c0-0.3-0.1-0.5-0.3-0.7
					c-0.2-0.2-0.4-0.4-0.7-0.6c-0.3-0.2-1-0.5-2-0.9c-0.9-0.4-1.6-0.8-2.1-1.1c-0.5-0.4-0.8-0.8-1.1-1.3c-0.3-0.5-0.4-1-0.4-1.7
					c0-1.2,0.5-2.2,1.4-2.9c0.9-0.7,2.2-1.1,3.8-1.1c0.8,0,1.6,0.1,2.3,0.3c0.7,0.2,1.5,0.4,2.3,0.7l-1.1,2.3
					c-0.8-0.3-1.5-0.5-2-0.6c-0.5-0.1-1.1-0.2-1.6-0.2c-0.6,0-1.1,0.1-1.4,0.4c-0.3,0.3-0.5,0.6-0.5,1c0,0.3,0.1,0.5,0.2,0.7
					c0.1,0.2,0.3,0.4,0.6,0.6c0.3,0.2,1,0.5,2.1,1c1.4,0.6,2.4,1.2,2.9,1.9C128.7,48.2,128.9,48.9,128.9,49.8z"/>
				<path class="st1" d="M136,46h1c1,0,1.8-0.2,2.3-0.5c0.5-0.3,0.7-0.8,0.7-1.5c0-0.7-0.3-1.1-0.8-1.4c-0.5-0.3-1.3-0.4-2.3-0.4h-1
					V46z M136,48.4v5.3h-3.2V39.9h4.5c2.1,0,3.6,0.3,4.6,1c1,0.7,1.5,1.7,1.5,3.1c0,0.8-0.2,1.5-0.7,2.2c-0.5,0.6-1.2,1.1-2.1,1.5
					c2.3,3.1,3.8,5.1,4.5,6h-3.6l-3.7-5.3H136z"/>
				<path class="st1" d="M160.1,39.9v8.9c0,1-0.3,1.9-0.8,2.7c-0.5,0.8-1.2,1.4-2.2,1.8c-1,0.4-2.1,0.6-3.4,0.6
					c-2,0-3.5-0.5-4.6-1.4c-1.1-0.9-1.6-2.2-1.6-3.7v-8.9h3.2v8.4c0,1.1,0.2,1.8,0.7,2.3c0.5,0.5,1.3,0.8,2.4,0.8
					c1.1,0,1.8-0.3,2.3-0.8c0.5-0.5,0.7-1.3,0.7-2.4v-8.4H160.1z"/>
				<path class="st1" d="M167.7,46.4h1.1c1,0,1.7-0.2,2.2-0.5c0.5-0.4,0.7-0.9,0.7-1.6c0-0.7-0.2-1.2-0.6-1.5
					c-0.4-0.3-1.1-0.5-1.9-0.5h-1.5V46.4z M175,44.2c0,1.5-0.5,2.6-1.5,3.4c-1,0.8-2.5,1.2-4.4,1.2h-1.4v4.9h-3.2V39.9h4.9
					c1.9,0,3.3,0.4,4.2,1.1C174.5,41.7,175,42.7,175,44.2z"/>
				<polygon class="st1" points="184.4,53.7 181.1,53.7 181.1,42.3 177,42.3 177,39.9 188.5,39.9 188.5,42.3 184.4,42.3 				"/>
				<polygon class="st1" points="191.7,39.9 194.9,39.9 194.9,53.7 191.7,53.7 				"/>
				<path class="st1" d="M209,39.9h3.3l-5.2,13.8h-3.5l-5.2-13.8h3.3l2.9,8.2c0.2,0.5,0.3,1,0.5,1.7c0.2,0.6,0.3,1.1,0.3,1.3
					c0.1-0.6,0.3-1.6,0.8-3L209,39.9z"/>
				<polygon class="st1" points="223.8,53.7 215,53.7 215,39.9 223.8,39.9 223.8,42.3 218.3,42.3 218.3,45.3 223.4,45.3 223.4,47.7 
					218.3,47.7 218.3,51.2 223.8,51.2 				"/>
			</g>
			<g>
				<path class="st1" d="M102.6,60.8v2h-0.7l-0.1-1.3h-2.7v8.2l1.1,0.1v0.6h-3v-0.6l1.1-0.1v-8.2h-2.7l-0.1,1.3h-0.7v-2H102.6z
					 M111.7,65.7h-4v3.9h4.6l0.1-1.4h0.7v2.1h-7.2v-0.6l1.1-0.1v-8.2l-1.1-0.1v-0.6h1.1h6.1v2.1h-0.7l-0.1-1.4h-4.6v3.6h4V65.7z
					 M124.5,63.8h-0.6l-0.1-1.4c-0.3-0.3-0.6-0.5-1-0.7c-0.4-0.2-0.9-0.3-1.4-0.3c-1.1,0-1.9,0.4-2.6,1.2s-1,1.8-1,3v0.1
					c0,1.2,0.3,2.2,1,3c0.6,0.8,1.5,1.2,2.5,1.2c0.5,0,1-0.1,1.5-0.3c0.4-0.2,0.8-0.4,1.1-0.7l0.1-1.4h0.6V69
					c-0.3,0.4-0.7,0.8-1.3,1c-0.6,0.3-1.2,0.4-2,0.4c-1.2,0-2.3-0.4-3.1-1.4c-0.8-0.9-1.2-2.1-1.2-3.5v-0.1c0-1.4,0.4-2.6,1.2-3.5
					c0.8-0.9,1.8-1.4,3.1-1.4c0.7,0,1.4,0.1,1.9,0.4s1,0.6,1.3,1V63.8z M128.2,61.4v-0.6h3v0.6l-1.1,0.1v3.8h5.5v-3.8l-1.1-0.1v-0.6
					h1.1h0.8h1.1v0.6l-1.1,0.1v8.2l1.1,0.1v0.6h-3v-0.6l1.1-0.1V66h-5.5v3.7l1.1,0.1v0.6h-3v-0.6l1.1-0.1v-8.2L128.2,61.4z
					 M150.2,60.8v0.6l-1.1,0.1v8.8h-0.8l-5.5-8.1l0,0v7.5l1.1,0.1v0.6h-3v-0.6l1.1-0.1v-8.2l-1.1-0.1v-0.6h1.1h0.8l5.5,8.1l0,0v-7.5
					l-1.1-0.1v-0.6h1.9H150.2z M162,65.6c0,1.4-0.4,2.6-1.2,3.5c-0.8,0.9-1.8,1.3-3,1.3c-1.2,0-2.2-0.4-3-1.3
					c-0.8-0.9-1.1-2.1-1.1-3.5v-0.1c0-1.4,0.4-2.6,1.1-3.5c0.8-0.9,1.8-1.3,3-1.3c1.2,0,2.3,0.4,3,1.3c0.8,0.9,1.2,2.1,1.2,3.5V65.6
					z M161.2,65.5c0-1.2-0.3-2.2-0.9-3c-0.6-0.8-1.4-1.1-2.5-1.1c-1,0-1.8,0.4-2.4,1.1c-0.6,0.8-0.9,1.8-0.9,3v0.1
					c0,1.2,0.3,2.2,0.9,3c0.6,0.8,1.4,1.1,2.4,1.1c1.1,0,1.9-0.4,2.5-1.1c0.6-0.8,0.9-1.8,0.9-3V65.5z M165.6,70.3v-0.6l1.1-0.1
					v-8.2l-1.1-0.1v-0.6h1.1h0.8h1.1v0.6l-1.1,0.1v8.2h4l0.1-1.3h0.7v2H165.6z M184,65.6c0,1.4-0.4,2.6-1.2,3.5
					c-0.8,0.9-1.8,1.3-3,1.3c-1.2,0-2.2-0.4-3-1.3c-0.8-0.9-1.1-2.1-1.1-3.5v-0.1c0-1.4,0.4-2.6,1.1-3.5c0.8-0.9,1.8-1.3,3-1.3
					c1.2,0,2.3,0.4,3,1.3c0.8,0.9,1.2,2.1,1.2,3.5V65.6z M183.2,65.5c0-1.2-0.3-2.2-0.9-3c-0.6-0.8-1.4-1.1-2.5-1.1
					c-1,0-1.8,0.4-2.4,1.1c-0.6,0.8-0.9,1.8-0.9,3v0.1c0,1.2,0.3,2.2,0.9,3c0.6,0.8,1.4,1.1,2.4,1.1c1.1,0,1.9-0.4,2.5-1.1
					c0.6-0.8,0.9-1.8,0.9-3V65.5z M195.4,69.3c-0.2,0.3-0.6,0.5-1.2,0.8c-0.6,0.3-1.3,0.4-2.2,0.4c-1.3,0-2.3-0.4-3.1-1.3
					c-0.8-0.9-1.2-2-1.2-3.5v-0.2c0-1.4,0.4-2.6,1.2-3.4c0.8-0.9,1.8-1.3,3.1-1.3c0.7,0,1.4,0.1,1.9,0.4c0.6,0.2,1,0.6,1.4,1v1.6
					h-0.6l-0.1-1.4c-0.3-0.3-0.6-0.5-1-0.7c-0.4-0.2-0.9-0.2-1.5-0.2c-1.1,0-2,0.4-2.6,1.1c-0.6,0.8-1,1.7-1,2.9v0.2
					c0,1.2,0.3,2.2,0.9,3c0.6,0.8,1.5,1.2,2.5,1.2c0.6,0,1.2-0.1,1.6-0.2c0.4-0.2,0.8-0.3,0.9-0.5v-2.3l-1.9,0v-0.6h2.7V69.3z
					 M199.6,61.4v-0.6h3v0.6l-1.1,0.1v8.2l1.1,0.1v0.6h-3v-0.6l1.1-0.1v-8.2L199.6,61.4z M211.9,65.7h-4v3.9h4.6l0.1-1.4h0.7v2.1
					H206v-0.6l1.1-0.1v-8.2l-1.1-0.1v-0.6h1.1h6.1v2.1h-0.7l-0.1-1.4h-4.6v3.6h4V65.7z M223.8,63.6h-0.7l-0.1-1.3
					c-0.2-0.3-0.6-0.5-1-0.7c-0.4-0.2-0.9-0.2-1.5-0.2c-0.8,0-1.4,0.2-1.9,0.5c-0.4,0.3-0.7,0.8-0.7,1.3c0,0.5,0.2,0.9,0.6,1.2
					c0.4,0.3,1.1,0.6,2.1,0.8c1.1,0.3,1.8,0.6,2.4,1.1c0.5,0.4,0.8,1,0.8,1.8c0,0.8-0.3,1.4-0.9,1.8c-0.6,0.4-1.4,0.7-2.4,0.7
					c-0.7,0-1.3-0.1-1.9-0.4c-0.6-0.2-1.1-0.6-1.5-1v-1.7h0.7l0.1,1.4c0.3,0.3,0.7,0.6,1.1,0.7c0.5,0.2,1,0.3,1.5,0.3
					c0.8,0,1.4-0.2,1.9-0.5c0.5-0.3,0.7-0.8,0.7-1.3c0-0.5-0.2-0.9-0.6-1.3c-0.4-0.3-1.1-0.6-2.1-0.9c-1.1-0.3-1.9-0.6-2.4-1
					c-0.5-0.4-0.8-1-0.8-1.7c0-0.7,0.3-1.3,0.9-1.8c0.6-0.5,1.4-0.7,2.4-0.7c0.7,0,1.3,0.1,1.9,0.4c0.6,0.2,1,0.6,1.3,1V63.6z"/>
				<path class="st1" d="M102.6,60.8v2h-0.7l-0.1-1.3h-2.7v8.2l1.1,0.1v0.6h-3v-0.6l1.1-0.1v-8.2h-2.7l-0.1,1.3h-0.7v-2H102.6z
					 M111.7,65.7h-4v3.9h4.6l0.1-1.4h0.7v2.1h-7.2v-0.6l1.1-0.1v-8.2l-1.1-0.1v-0.6h1.1h6.1v2.1h-0.7l-0.1-1.4h-4.6v3.6h4V65.7z
					 M124.5,63.8h-0.6l-0.1-1.4c-0.3-0.3-0.6-0.5-1-0.7c-0.4-0.2-0.9-0.3-1.4-0.3c-1.1,0-1.9,0.4-2.6,1.2s-1,1.8-1,3v0.1
					c0,1.2,0.3,2.2,1,3c0.6,0.8,1.5,1.2,2.5,1.2c0.5,0,1-0.1,1.5-0.3c0.4-0.2,0.8-0.4,1.1-0.7l0.1-1.4h0.6V69
					c-0.3,0.4-0.7,0.8-1.3,1c-0.6,0.3-1.2,0.4-2,0.4c-1.2,0-2.3-0.4-3.1-1.4c-0.8-0.9-1.2-2.1-1.2-3.5v-0.1c0-1.4,0.4-2.6,1.2-3.5
					c0.8-0.9,1.8-1.4,3.1-1.4c0.7,0,1.4,0.1,1.9,0.4s1,0.6,1.3,1V63.8z M128.2,61.4v-0.6h3v0.6l-1.1,0.1v3.8h5.5v-3.8l-1.1-0.1v-0.6
					h1.1h0.8h1.1v0.6l-1.1,0.1v8.2l1.1,0.1v0.6h-3v-0.6l1.1-0.1V66h-5.5v3.7l1.1,0.1v0.6h-3v-0.6l1.1-0.1v-8.2L128.2,61.4z
					 M150.2,60.8v0.6l-1.1,0.1v8.8h-0.8l-5.5-8.1l0,0v7.5l1.1,0.1v0.6h-3v-0.6l1.1-0.1v-8.2l-1.1-0.1v-0.6h1.1h0.8l5.5,8.1l0,0v-7.5
					l-1.1-0.1v-0.6h1.9H150.2z M162,65.6c0,1.4-0.4,2.6-1.2,3.5c-0.8,0.9-1.8,1.3-3,1.3c-1.2,0-2.2-0.4-3-1.3
					c-0.8-0.9-1.1-2.1-1.1-3.5v-0.1c0-1.4,0.4-2.6,1.1-3.5c0.8-0.9,1.8-1.3,3-1.3c1.2,0,2.3,0.4,3,1.3c0.8,0.9,1.2,2.1,1.2,3.5V65.6
					z M161.2,65.5c0-1.2-0.3-2.2-0.9-3c-0.6-0.8-1.4-1.1-2.5-1.1c-1,0-1.8,0.4-2.4,1.1c-0.6,0.8-0.9,1.8-0.9,3v0.1
					c0,1.2,0.3,2.2,0.9,3c0.6,0.8,1.4,1.1,2.4,1.1c1.1,0,1.9-0.4,2.5-1.1c0.6-0.8,0.9-1.8,0.9-3V65.5z M165.6,70.3v-0.6l1.1-0.1
					v-8.2l-1.1-0.1v-0.6h1.1h0.8h1.1v0.6l-1.1,0.1v8.2h4l0.1-1.3h0.7v2H165.6z M184,65.6c0,1.4-0.4,2.6-1.2,3.5
					c-0.8,0.9-1.8,1.3-3,1.3c-1.2,0-2.2-0.4-3-1.3c-0.8-0.9-1.1-2.1-1.1-3.5v-0.1c0-1.4,0.4-2.6,1.1-3.5c0.8-0.9,1.8-1.3,3-1.3
					c1.2,0,2.3,0.4,3,1.3c0.8,0.9,1.2,2.1,1.2,3.5V65.6z M183.2,65.5c0-1.2-0.3-2.2-0.9-3c-0.6-0.8-1.4-1.1-2.5-1.1
					c-1,0-1.8,0.4-2.4,1.1c-0.6,0.8-0.9,1.8-0.9,3v0.1c0,1.2,0.3,2.2,0.9,3c0.6,0.8,1.4,1.1,2.4,1.1c1.1,0,1.9-0.4,2.5-1.1
					c0.6-0.8,0.9-1.8,0.9-3V65.5z M195.4,69.3c-0.2,0.3-0.6,0.5-1.2,0.8c-0.6,0.3-1.3,0.4-2.2,0.4c-1.3,0-2.3-0.4-3.1-1.3
					c-0.8-0.9-1.2-2-1.2-3.5v-0.2c0-1.4,0.4-2.6,1.2-3.4c0.8-0.9,1.8-1.3,3.1-1.3c0.7,0,1.4,0.1,1.9,0.4c0.6,0.2,1,0.6,1.4,1v1.6
					h-0.6l-0.1-1.4c-0.3-0.3-0.6-0.5-1-0.7c-0.4-0.2-0.9-0.2-1.5-0.2c-1.1,0-2,0.4-2.6,1.1c-0.6,0.8-1,1.7-1,2.9v0.2
					c0,1.2,0.3,2.2,0.9,3c0.6,0.8,1.5,1.2,2.5,1.2c0.6,0,1.2-0.1,1.6-0.2c0.4-0.2,0.8-0.3,0.9-0.5v-2.3l-1.9,0v-0.6h2.7V69.3z
					 M199.6,61.4v-0.6h3v0.6l-1.1,0.1v8.2l1.1,0.1v0.6h-3v-0.6l1.1-0.1v-8.2L199.6,61.4z M211.9,65.7h-4v3.9h4.6l0.1-1.4h0.7v2.1
					H206v-0.6l1.1-0.1v-8.2l-1.1-0.1v-0.6h1.1h6.1v2.1h-0.7l-0.1-1.4h-4.6v3.6h4V65.7z M223.8,63.6h-0.7l-0.1-1.3
					c-0.2-0.3-0.6-0.5-1-0.7c-0.4-0.2-0.9-0.2-1.5-0.2c-0.8,0-1.4,0.2-1.9,0.5c-0.4,0.3-0.7,0.8-0.7,1.3c0,0.5,0.2,0.9,0.6,1.2
					c0.4,0.3,1.1,0.6,2.1,0.8c1.1,0.3,1.8,0.6,2.4,1.1c0.5,0.4,0.8,1,0.8,1.8c0,0.8-0.3,1.4-0.9,1.8c-0.6,0.4-1.4,0.7-2.4,0.7
					c-0.7,0-1.3-0.1-1.9-0.4c-0.6-0.2-1.1-0.6-1.5-1v-1.7h0.7l0.1,1.4c0.3,0.3,0.7,0.6,1.1,0.7c0.5,0.2,1,0.3,1.5,0.3
					c0.8,0,1.4-0.2,1.9-0.5c0.5-0.3,0.7-0.8,0.7-1.3c0-0.5-0.2-0.9-0.6-1.3c-0.4-0.3-1.1-0.6-2.1-0.9c-1.1-0.3-1.9-0.6-2.4-1
					c-0.5-0.4-0.8-1-0.8-1.7c0-0.7,0.3-1.3,0.9-1.8c0.6-0.5,1.4-0.7,2.4-0.7c0.7,0,1.3,0.1,1.9,0.4c0.6,0.2,1,0.6,1.3,1V63.6z"/>
			</g>
		</g>
		<g>
			<g>
				<path class="st0" d="M33.1,79.7c-1.5,0-2.8-1.2-2.8-2.7V33.2c0-1.5,1.2-2.7,2.8-2.7h43.8c1.5,0,2.7,1.2,2.7,2.7V77
					c0,1.5-1.2,2.7-2.7,2.7H33.1z"/>
				<path id="_x31_" class="st2" d="M33.1,79.7c-1.5,0-2.8-1.2-2.8-2.7V33.2c0-1.5,1.2-2.7,2.8-2.7h43.8c1.5,0,2.7,1.2,2.7,2.7V77
					c0,1.5-1.2,2.7-2.7,2.7H33.1z M31.9,78.2c0.3,0.3,0.7,0.5,1.2,0.5h43.8c0.5,0,0.9-0.2,1.2-0.5l0,0c0.3-0.3,0.5-0.7,0.5-1.2V33.2
					c0-0.5-0.2-0.9-0.5-1.2c-0.3-0.3-0.7-0.5-1.2-0.5H33.1c-0.5,0-0.9,0.2-1.2,0.5l0,0c-0.3,0.3-0.5,0.7-0.5,1.2V77
					C31.4,77.4,31.6,77.9,31.9,78.2z"/>
			</g>
			<path class="st3" d="M39.2,37.1c0,1.2-1,2.2-2.2,2.2c-1.2,0-2.2-1-2.2-2.2c0-1.2,1-2.2,2.2-2.2C38.2,34.9,39.2,35.9,39.2,37.1z"
				/>
		</g>
	</g>
</g>
</svg>
